<?xml version="1.0" encoding="UTF-8"?>
<svg version="1.1" xmlns="http://www.w3.org/2000/svg" width="120" height="162">
<path d="M0 0 C0 42.9 0 85.8 0 130 C-10.34818667 132.58704667 -21.34012955 130.38070966 -32 130 C-32 87.1 -32 44.2 -32 0 C-3 -1 -3 -1 0 0 Z " fill="#91B5E1" transform="translate(110,19)"/>
<path d="M0 0 C10.56 0 21.12 0 32 0 C32 42.9 32 85.8 32 130 C21.44 130 10.88 130 0 130 C0 87.1 0 44.2 0 0 Z " fill="#4A6581" transform="translate(41,19)"/>
<path d="M0 0 C10.23 0 20.46 0 31 0 C31.33 42.9 31.66 85.8 32 130 C21.44 130 10.88 130 0 130 C0 87.1 0 44.2 0 0 Z " fill="#11355E" transform="translate(5,19)"/>
<path d="M0 0 C9.9 0 19.8 0 30 0 C29.67 41.91 29.34 83.82 29 127 C27.515 126.505 27.515 126.505 26 126 C26.33 125.67 26.66 125.34 27 125 C27.10815857 123.39351485 27.14684545 121.78230777 27.15821838 120.17222595 C27.17290161 118.6051313 27.17290161 118.6051313 27.18788147 117.00637817 C27.19363693 115.85048187 27.1993924 114.69458557 27.20532227 113.50366211 C27.21522186 112.29407333 27.22512146 111.08448456 27.23532104 109.83824158 C27.26157156 106.51196578 27.28340756 103.18571479 27.30332303 99.8593986 C27.32514495 96.38667221 27.35255214 92.91399013 27.37937927 89.44129944 C27.42935763 82.86107022 27.4742773 76.28081648 27.51740164 69.70053917 C27.56673016 62.21090741 27.6216645 54.7213201 27.67708123 47.2317313 C27.7909802 31.82119364 27.89706176 16.41061536 28 1 C19.42 1.33 10.84 1.66 2 2 C2 42.92 2 83.84 2 126 C4.97 125.505 4.97 125.505 8 125 C8.33 125.66 8.66 126.32 9 127 C6.03 127 3.06 127 0 127 C0 85.09 0 43.18 0 0 Z " fill="#122F51" transform="translate(6,20)"/>
<path d="M0 0 C0 39.27 0 78.54 0 119 C-0.66 118.67 -1.32 118.34 -2 118 C-2 80.05 -2 42.1 -2 3 C-5.96 3 -9.92 3 -14 3 C-14.66 2.67 -15.32 2.34 -16 2 C-18.71760108 1.92818179 -21.40859388 1.90700494 -24.125 1.9375 C-25.25615234 1.94426758 -25.25615234 1.94426758 -26.41015625 1.95117188 C-28.27347127 1.96296501 -30.13674555 1.98090058 -32 2 C-32 1.34 -32 0.68 -32 0 C-27.92514175 -0.16780395 -23.8500684 -0.32834318 -19.7746582 -0.48217773 C-18.38851232 -0.53552222 -17.00244111 -0.59084559 -15.61645508 -0.64819336 C-13.62341774 -0.73031421 -11.63006691 -0.80471215 -9.63671875 -0.87890625 C-7.83787231 -0.94960327 -7.83787231 -0.94960327 -6.00268555 -1.02172852 C-3 -1 -3 -1 0 0 Z " fill="#BDD3EB" transform="translate(110,19)"/>
<path d="M0 0 C0 7.26 0 14.52 0 22 C-0.33 22 -0.66 22 -1 22 C-1 16.06 -1 10.12 -1 4 C-5.58984375 4.04882812 -5.58984375 4.04882812 -10.1796875 4.09765625 C-13 4 -13 4 -15 3 C-17.71760108 2.92818179 -20.40859388 2.90700494 -23.125 2.9375 C-24.25615234 2.94426758 -24.25615234 2.94426758 -25.41015625 2.95117188 C-27.27347127 2.96296501 -29.13674555 2.98090058 -31 3 C-31 2.34 -31 1.68 -31 1 C-26.90659073 0.8571448 -22.81316608 0.71473966 -18.71972656 0.57275391 C-17.3268186 0.52437552 -15.93391492 0.47587355 -14.54101562 0.42724609 C-12.54037587 0.3574232 -10.53971941 0.28807969 -8.5390625 0.21875 C-6.73236084 0.1559082 -6.73236084 0.1559082 -4.88916016 0.09179688 C-3.25997501 0.04003301 -1.63000728 0 0 0 Z " fill="#A4BBD4" transform="translate(109,18)"/>
<path d="M0 0 C1.47876775 0.0780596 2.9606152 0.10791431 4.44140625 0.09765625 C5.27220703 0.09443359 6.10300781 0.09121094 6.95898438 0.08789062 C7.81814453 0.07951172 8.67730469 0.07113281 9.5625 0.0625 C10.42552734 0.05798828 11.28855469 0.05347656 12.17773438 0.04882812 C13.77809021 0.04012378 15.37843715 0.02936316 16.97875977 0.01586914 C18.65246329 0.00272858 20.3262449 0 22 0 C21.67 0.66 21.34 1.32 21 2 C12.09 2 3.18 2 -6 2 C-6 1.34 -6 0.68 -6 0 C-3.45291002 -1.27354499 -2.69341024 -0.71146109 0 0 Z " fill="#A4BAD9" transform="translate(84,147)"/>
<path d="M0 0 C2.09350689 3.4019487 2.17942163 6.05272412 2 10 C0.68 9.67 -0.64 9.34 -2 9 C-2.6875 7.3125 -2.6875 7.3125 -3 5 C-1.5625 2.25 -1.5625 2.25 0 0 Z M-10 7 C-8.02 7 -6.04 7 -4 7 C-4 7.33 -4 7.66 -4 8 C-5.98 8 -7.96 8 -10 8 C-10 7.67 -10 7.34 -10 7 Z " fill="#8FACDB" transform="translate(107,140)"/>
</svg>
